<svg xmlns="http://www.w3.org/2000/svg" xmlns:xlink="http://www.w3.org/1999/xlink" width="565.627" height="559.846" viewBox="0 0 565.627 559.846">
  <defs>
    <linearGradient id="linear-gradient" x1="0.5" x2="0.5" y2="1" gradientUnits="objectBoundingBox">
      <stop offset="0" stop-color="#343fa5" stop-opacity="0.502"/>
      <stop offset="1" stop-color="#343fa5" stop-opacity="0.102"/>
    </linearGradient>
    <linearGradient id="linear-gradient-2" x1="-0.064" y1="-0.083" x2="1.196" y2="0.89" xlink:href="#linear-gradient"/>
    <linearGradient id="linear-gradient-3" x1="-0.119" y1="1.163" x2="0.565" y2="0.488" gradientUnits="objectBoundingBox">
      <stop offset="0.24" stop-color="#e05244"/>
      <stop offset="0.398" stop-color="#e75a50"/>
      <stop offset="0.768" stop-color="#f46a67"/>
      <stop offset="1" stop-color="#fa7070"/>
    </linearGradient>
    <linearGradient id="linear-gradient-4" x1="0.159" y1="0.997" x2="0.876" y2="-0.043" gradientUnits="objectBoundingBox">
      <stop offset="0.24" stop-color="#cf4644"/>
      <stop offset="0.509" stop-color="#dc524e"/>
      <stop offset="1" stop-color="#f16560"/>
    </linearGradient>
    <linearGradient id="linear-gradient-5" x1="1.516" y1="1.278" x2="0.013" y2="0.188" gradientUnits="objectBoundingBox">
      <stop offset="0" stop-color="#cf4644"/>
      <stop offset="0.353" stop-color="#dc524e"/>
      <stop offset="1" stop-color="#f16560"/>
    </linearGradient>
  </defs>
  <g id="Group_7220" data-name="Group 7220" transform="translate(-785.836 -183.999)">
    <g id="Group_6187" data-name="Group 6187" transform="translate(786.798 183.999)">
      <g id="Group_6186" data-name="Group 6186" transform="translate(0 241.769)">
        <g id="Group_6154" data-name="Group 6154" transform="translate(5.545 101.574)">
          <line id="Line_2" data-name="Line 2" y2="105.072" transform="translate(105.072 0)" fill="none" stroke="#88efdc" stroke-miterlimit="10" stroke-width="1"/>
          <line id="Line_3" data-name="Line 3" x1="74.297" y2="74.297" transform="translate(105.072 30.775)" fill="none" stroke="#88efdc" stroke-miterlimit="10" stroke-width="1"/>
          <line id="Line_4" data-name="Line 4" x1="105.072" transform="translate(105.072 105.072)" fill="none" stroke="#88efdc" stroke-miterlimit="10" stroke-width="1"/>
          <line id="Line_5" data-name="Line 5" x1="74.297" y1="74.297" transform="translate(105.072 105.072)" fill="none" stroke="#88efdc" stroke-miterlimit="10" stroke-width="1"/>
          <line id="Line_6" data-name="Line 6" y1="105.072" transform="translate(105.072 105.072)" fill="none" stroke="#88efdc" stroke-miterlimit="10" stroke-width="1"/>
          <line id="Line_7" data-name="Line 7" y1="74.297" x2="74.297" transform="translate(30.775 105.072)" fill="none" stroke="#88efdc" stroke-miterlimit="10" stroke-width="1"/>
          <line id="Line_8" data-name="Line 8" x2="105.072" transform="translate(0 105.072)" fill="none" stroke="#88efdc" stroke-miterlimit="10" stroke-width="1"/>
          <line id="Line_9" data-name="Line 9" x2="74.297" y2="74.297" transform="translate(30.775 30.775)" fill="none" stroke="#88efdc" stroke-miterlimit="10" stroke-width="1"/>
          <line id="Line_10" data-name="Line 10" x2="40.209" y2="97.074" transform="translate(64.863 7.998)" fill="none" stroke="#88efdc" stroke-miterlimit="10" stroke-width="1"/>
          <line id="Line_11" data-name="Line 11" x1="40.209" y2="97.074" transform="translate(105.072 7.998)" fill="none" stroke="#88efdc" stroke-miterlimit="10" stroke-width="1"/>
          <line id="Line_12" data-name="Line 12" x1="97.074" y2="40.209" transform="translate(105.072 64.863)" fill="none" stroke="#88efdc" stroke-miterlimit="10" stroke-width="1"/>
          <line id="Line_13" data-name="Line 13" x1="97.074" y1="40.209" transform="translate(105.072 105.072)" fill="none" stroke="#88efdc" stroke-miterlimit="10" stroke-width="1"/>
          <line id="Line_14" data-name="Line 14" x1="40.21" y1="97.074" transform="translate(105.072 105.072)" fill="none" stroke="#88efdc" stroke-miterlimit="10" stroke-width="1"/>
          <line id="Line_15" data-name="Line 15" y1="97.074" x2="40.209" transform="translate(64.863 105.072)" fill="none" stroke="#88efdc" stroke-miterlimit="10" stroke-width="1"/>
          <line id="Line_16" data-name="Line 16" y1="40.21" x2="97.074" transform="translate(7.998 105.072)" fill="none" stroke="#88efdc" stroke-miterlimit="10" stroke-width="1"/>
          <line id="Line_17" data-name="Line 17" x2="97.074" y2="40.209" transform="translate(7.998 64.863)" fill="none" stroke="#88efdc" stroke-miterlimit="10" stroke-width="1"/>
        </g>
        <line id="Line_1" data-name="Line 1" x2="26.36" y2="131.068" transform="translate(84.257 77.217)" fill="none" stroke="#88efdc" stroke-miterlimit="10" stroke-width="2"/>
        <path id="Path_10820" data-name="Path 10820" d="M975.791,273.66a114.925,114.925,0,0,0-221.234,0" transform="translate(-754.556 -96.549)" fill="none" stroke="#88efdc" stroke-miterlimit="10" stroke-width="2"/>
        <line id="Line_37" data-name="Line 37" y1="140.71" x2="96.337" transform="translate(110.617 67.575)" fill="none" stroke="#88efdc" stroke-miterlimit="10" stroke-width="5"/>
        <g id="Group_6158" data-name="Group 6158" transform="translate(162.836)">
          <path id="Path_10823" data-name="Path 10823" d="M911.291,148.624c-.789-4.74-63.546-12.363-68.557-5.035s-2.126,27.854,21.062,31.822C876.055,177.509,912.871,158.106,911.291,148.624Z" transform="translate(-840.645 -140.549)" fill="#88efdc"/>
        </g>
        <line id="Line_39" data-name="Line 39" x1="27.698" y2="131.068" transform="translate(110.617 77.217)" fill="none" stroke="#88efdc" stroke-miterlimit="10" stroke-width="2"/>
        <g id="Group_6173" data-name="Group 6173" transform="translate(22.146 69.651)">
          <rect id="Rectangle_2084" data-name="Rectangle 2084" width="130.877" height="15.132" transform="translate(0 0)" fill="#88efdc"/>
        </g>
      </g>
      <g id="Group_6166" data-name="Group 6166" transform="translate(188.986 177.294)">
        <g id="Group_6164" data-name="Group 6164" transform="translate(37.687 223.311)">
          <path id="Path_10832" data-name="Path 10832" d="M901.809,227.127l-15.461,27.827s2.956,9.664,5,13.057c0,0-17.54-8.5-13.969-13.17.8-1.046,1.505-1.7,3.31-4.027,2.637-10.233,8.966-26.29,8.966-26.29" transform="translate(-872.16 -224.524)" fill="#ffc4c0"/>
          <path id="Path_10833" data-name="Path 10833" d="M897.338,258.256c2.16,2.344-1.9,4.836-4.053,4.008-1.434-.55-12.628-11.392-17.614-14.753a4.184,4.184,0,0,1-.957-1.25c-.768-1.612.03-2.066.515-2.5a3.371,3.371,0,0,0,1.252-1.508" transform="translate(-874.395 -208.722)" fill="#e05244"/>
          <path id="Path_10834" data-name="Path 10834" d="M876.061,244.861c1.328-1.844,3.408-8.041,5.429-5.792.414,3.4,2.894,5.55,5.79,4.867.418-.1,2.639-2.414,3.151.41.541,2.981,1.839,5.205,3.479,9.274.749,1.857,4.946,6.985,4.42,8.508-.812,2.353-2.4,3.094-4.417,2.124s-13.253-12.334-17.2-15.058c-.66-.458-2.1-1.15-1.943-2.028A10.033,10.033,0,0,1,876.061,244.861Z" transform="translate(-874.07 -211.989)" fill="#fa7070"/>
          <g id="Group_6160" data-name="Group 6160" transform="translate(6.534 25.927)">
            <path id="Path_10835" data-name="Path 10835" d="M886.8,243.442c-2.754,2.692-10.21-.015-8.765-4.95a.34.34,0,0,1,.654-.025c.609,2.043,1.462,3.55,3.31,4.311,1.6.662,3.053-.1,4.646.076a.351.351,0,0,1,.155.588Z" transform="translate(-877.85 -238.231)" fill="#e05244"/>
          </g>
          <g id="Group_6161" data-name="Group 6161" transform="translate(14.498 39.156)">
            <path id="Path_10836" data-name="Path 10836" d="M887,246.172a13.751,13.751,0,0,0-2.345.9,7.243,7.243,0,0,1-2.111.946.453.453,0,0,1-.443-.622c.834-1.857,3.238-2.347,4.869-2.118.454.064.448.768.03.895Z" transform="translate(-882.06 -245.225)" fill="#e05244"/>
          </g>
          <g id="Group_6162" data-name="Group 6162" transform="translate(13.418 36.615)">
            <path id="Path_10837" data-name="Path 10837" d="M886.257,245.047c-1.528-.306-2.926.857-4.345,1.222-.357.093-.514-.386-.369-.69a3.215,3.215,0,0,1,2.086-1.589,5.738,5.738,0,0,1,2.7.159c.49.1.422,1-.07.9Z" transform="translate(-881.49 -243.882)" fill="#e05244"/>
          </g>
          <g id="Group_6163" data-name="Group 6163" transform="translate(11.891 33.972)">
            <path id="Path_10838" data-name="Path 10838" d="M886.127,244.012a6.216,6.216,0,0,0-2.622.6,9.793,9.793,0,0,1-2.272.946c-.465.093-.673-.486-.481-.9.982-2.092,3.673-2.344,5.489-2.1.819.108.679,1.445-.116,1.453Z" transform="translate(-880.682 -242.485)" fill="#e05244"/>
          </g>
        </g>
        <path id="Path_10839" data-name="Path 10839" d="M913.115,128.466s75.411,79.291,72.487,102.983c-2.156,17.473-75.678,122.314-75.678,122.314s-4.09,1.606-7.583-3.429c1.594-12.134,8.926-48.995,21.442-76.739,8.362-18.538,20.908-28.474,27.517-34.546-12.5-6.195-71.67-42.159-85.143-64.393-19.1-31.521-9.037-68.193-9.037-68.193" transform="translate(-854.471 -106.462)" fill="#04a285"/>
        <path id="Path_10840" data-name="Path 10840" d="M907.883,153.211q-5.07-7.431-10.144-14.863l-27.432-17.487c-2.514,11.714-6.894,22.756-10.328,34.152-.233.768-.424,1.549-.647,2.321.775,1.5,1.589,3,2.489,4.485,13.473,22.234,72.638,58.2,85.143,64.393-6.609,6.072-19.155,16.008-27.517,34.546C906.932,288.5,899.6,325.364,898.006,337.5a9.7,9.7,0,0,0,2.4,2.478c.2-.4.411-.806.611-1.209,9.4-18.9,16.187-39.36,24.591-58.874s18.739-38.493,33.557-51.913c-1.18-1.385-.4-3.942,1.067-4.9s3.255-.783,4.925-.584C942.577,203.931,925.069,178.39,907.883,153.211Z" transform="translate(-850.136 -93.626)" fill="url(#linear-gradient)" style="mix-blend-mode: multiply;isolation: isolate"/>
        <g id="Group_6165" data-name="Group 6165" transform="translate(30.069 263.487)">
          <path id="Path_10841" data-name="Path 10841" d="M904.375,270.77l-34.008-14.219,3.347-10.787,34.007,14.219Z" transform="translate(-870.367 -245.764)" fill="#88efdc"/>
        </g>
      </g>
      <path id="Path_10817" data-name="Path 10817" d="M837.908,181.372h25.414l15.569,11.62" transform="translate(-686.493 137.613)" fill="none" stroke="#88efdc" stroke-miterlimit="10" stroke-width="5"/>
      <g id="Path_10818" data-name="Path 10818" transform="translate(-707.733 186.785)" fill="none" stroke-miterlimit="10">
        <path d="M818.35,252a11.272,11.272,0,0,0,0,22.545L968.9,290.008a26.739,26.739,0,1,0,0-53.478Z" stroke="none"/>
        <path d="M 968.8968505859375 236.530029296875 L 818.3504028320312 251.9966430664062 C 812.1255493164062 251.9966430664062 807.0791015625 257.0430297851562 807.0791015625 263.2679443359375 C 807.0791015625 269.49462890625 812.1255493164062 274.5411376953125 818.3504028320312 274.5411376953125 L 968.8968505859375 290.0077514648438 C 983.6654052734375 290.0077514648438 995.636474609375 278.0365600585938 995.636474609375 263.2679443359375 C 995.636474609375 248.5010986328125 983.6654052734375 236.530029296875 968.8968505859375 236.530029296875 M 968.8455810546875 235.530029296875 L 968.8968505859375 235.530029296875 C 972.641357421875 235.530029296875 976.2743530273438 236.2635498046875 979.6949462890625 237.7102355957031 C 982.998291015625 239.1073303222656 985.9647216796875 241.1072082519531 988.511962890625 243.654296875 C 991.0591430664062 246.2013549804688 993.05908203125 249.1676940917969 994.4562377929688 252.4708251953125 C 995.9029541015625 255.89111328125 996.636474609375 259.5237731933594 996.636474609375 263.2679443359375 C 996.636474609375 267.0125122070312 995.9029541015625 270.6455078125 994.4562377929688 274.0660705566406 C 993.05908203125 277.3694763183594 991.0591430664062 280.3359680175781 988.511962890625 282.8831787109375 C 985.9647827148438 285.4303894042969 982.998291015625 287.4303588867188 979.6949462890625 288.8275146484375 C 976.2744140625 290.2742004394531 972.6414184570312 291.0077514648438 968.8968505859375 291.0077514648438 L 968.8455810546875 291.0077514648438 L 968.7946166992188 291.0025024414062 L 818.298095703125 275.541015625 C 815.0397338867188 275.5275268554688 811.9786376953125 274.2522583007812 809.6732788085938 271.9465942382812 C 807.3555297851562 269.6285705566406 806.0791015625 266.5464477539062 806.0791015625 263.2679443359375 C 806.0791015625 259.9901733398438 807.3555297851562 256.9085998535156 809.67333984375 254.5908508300781 C 811.978759765625 252.285400390625 815.0398559570312 251.01025390625 818.298095703125 250.9967651367188 L 968.8455810546875 235.530029296875 Z" stroke="none" fill="#2a2b7c"/>
      </g>
      <circle id="Ellipse_7" data-name="Ellipse 7" cx="11.272" cy="11.272" r="11.272" transform="translate(99.346 438.782)" fill="#04a285"/>
      <circle id="Ellipse_9" data-name="Ellipse 9" cx="26.739" cy="26.739" r="26.739" transform="translate(234.425 423.315)" fill="#04a285"/>
      <path id="Path_10824" data-name="Path 10824" d="M904.059,254.326a7.767,7.767,0,1,1-7.768-7.766A7.769,7.769,0,0,1,904.059,254.326Z" transform="translate(-635.127 195.726)" fill="#99dbff"/>
      <g id="Group_6159" data-name="Group 6159" transform="translate(289.407 488.659)">
        <rect id="Rectangle_2082" data-name="Rectangle 2082" width="9.876" height="36.146" transform="matrix(0.096, -0.995, 0.995, 0.096, 0, 9.83)" fill="#88efdc"/>
      </g>
      <line id="Line_38" data-name="Line 38" x2="44.585" y2="45.248" transform="translate(261.164 450.054)" fill="none" stroke="#88efdc" stroke-linecap="round" stroke-linejoin="round" stroke-width="3"/>
      <g id="Group_6185" data-name="Group 6185" transform="translate(206.955 278.254)">
        <g id="Group_6156" data-name="Group 6156" transform="translate(140.523 66.213)">
          <line id="Line_20" data-name="Line 20" y2="105.586" transform="translate(105.586 0)" fill="none" stroke="#88efdc" stroke-miterlimit="10" stroke-width="1"/>
          <line id="Line_21" data-name="Line 21" x1="74.661" y2="74.661" transform="translate(105.586 30.926)" fill="none" stroke="#88efdc" stroke-miterlimit="10" stroke-width="1"/>
          <line id="Line_22" data-name="Line 22" x1="105.586" transform="translate(105.586 105.586)" fill="none" stroke="#88efdc" stroke-miterlimit="10" stroke-width="1"/>
          <line id="Line_23" data-name="Line 23" x1="74.661" y1="74.661" transform="translate(105.586 105.586)" fill="none" stroke="#88efdc" stroke-miterlimit="10" stroke-width="1"/>
          <line id="Line_24" data-name="Line 24" y1="105.586" transform="translate(105.586 105.586)" fill="none" stroke="#88efdc" stroke-miterlimit="10" stroke-width="1"/>
          <line id="Line_25" data-name="Line 25" y1="74.661" x2="74.661" transform="translate(30.926 105.586)" fill="none" stroke="#88efdc" stroke-miterlimit="10" stroke-width="1"/>
          <line id="Line_26" data-name="Line 26" x2="105.586" transform="translate(0 105.586)" fill="none" stroke="#88efdc" stroke-miterlimit="10" stroke-width="1"/>
          <line id="Line_27" data-name="Line 27" x2="74.661" y2="74.661" transform="translate(30.926 30.926)" fill="none" stroke="#88efdc" stroke-miterlimit="10" stroke-width="1"/>
          <line id="Line_28" data-name="Line 28" x2="40.406" y2="97.549" transform="translate(65.18 8.037)" fill="none" stroke="#88efdc" stroke-miterlimit="10" stroke-width="1"/>
          <line id="Line_29" data-name="Line 29" x1="40.406" y2="97.549" transform="translate(105.586 8.037)" fill="none" stroke="#88efdc" stroke-miterlimit="10" stroke-width="1"/>
          <line id="Line_30" data-name="Line 30" x1="97.549" y2="40.406" transform="translate(105.586 65.18)" fill="none" stroke="#88efdc" stroke-miterlimit="10" stroke-width="1"/>
          <line id="Line_31" data-name="Line 31" x1="97.549" y1="40.406" transform="translate(105.586 105.586)" fill="none" stroke="#88efdc" stroke-miterlimit="10" stroke-width="1"/>
          <line id="Line_32" data-name="Line 32" x1="40.406" y1="97.549" transform="translate(105.586 105.586)" fill="none" stroke="#88efdc" stroke-miterlimit="10" stroke-width="1"/>
          <line id="Line_33" data-name="Line 33" y1="97.549" x2="40.406" transform="translate(65.18 105.586)" fill="none" stroke="#88efdc" stroke-miterlimit="10" stroke-width="1"/>
          <line id="Line_34" data-name="Line 34" y1="40.406" x2="97.549" transform="translate(8.037 105.586)" fill="none" stroke="#88efdc" stroke-miterlimit="10" stroke-width="1"/>
          <line id="Line_35" data-name="Line 35" x2="97.549" y2="40.406" transform="translate(8.037 65.18)" fill="none" stroke="#88efdc" stroke-miterlimit="10" stroke-width="1"/>
        </g>
        <line id="Line_18" data-name="Line 18" y1="131.068" x2="141.196" transform="translate(54.209 40.732)" fill="none" stroke="#88efdc" stroke-miterlimit="10" stroke-width="2"/>
        <path id="Path_10822" data-name="Path 10822" d="M1156.848,273.66a114.925,114.925,0,0,0-221.234,0" transform="translate(-800.102 -133.034)" fill="none" stroke="#88efdc" stroke-miterlimit="10" stroke-width="2"/>
        <line id="Line_36" data-name="Line 36" x2="191.92" transform="translate(0 31.09)" fill="none" stroke="#88efdc" stroke-miterlimit="10" stroke-width="2"/>
        <g id="Group_6184" data-name="Group 6184" transform="translate(184.24)">
          <path id="Path_10825" data-name="Path 10825" d="M1023.265,331.637,961.977,171.921a8.87,8.87,0,0,1,8.211-12.083H986s14.415.032,16.427,11.3c1.354,7.6-6.437,11.423-6.437,11.423" transform="translate(-961.376 -159.838)" fill="none" stroke="#88efdc" stroke-linecap="round" stroke-linejoin="round" stroke-width="5"/>
        </g>
      </g>
      <rect id="Rectangle_2083" data-name="Rectangle 2083" width="142.403" height="89.333" transform="translate(16.383 222.554)" fill="#f9b569"/>
      <path id="Path_10826" data-name="Path 10826" d="M795.439,130.39v48.2l5.319-4.9,4.514,3.871,4.514-3.871,4.513,3.871,4.514-3.871,4.514,3.871,4.514-3.871,5.319,4.9v-48.2Z" transform="translate(-723.103 92.164)" fill="#fa9b49" opacity="0.55" style="mix-blend-mode: multiply;isolation: isolate"/>
      <path id="Path_10827" data-name="Path 10827" d="M980.262,158.494" transform="translate(-553.344 117.218)" fill="none" stroke="#ffc4c0" stroke-miterlimit="10" stroke-width="1"/>
      <path id="Path_10828" data-name="Path 10828" d="M916.455,49.516c11.8-7.5,25.026,4.409,30.294,16.6,14.038,32.482,19.414,68.585,29.708,102.981,18.168,21.78,46.772,77.439,46.772,77.439l-4.311,7.49c-28.8-18.353-41.306-34.461-65.49-59.914-15.117-23.235-32.927-48.055-44.1-74.414" transform="translate(-616.579 17.982)" fill="#e05244"/>
      <path id="Path_10829" data-name="Path 10829" d="M924.893,59.729a49.257,49.257,0,0,1-4.74,5.207,93.976,93.976,0,0,1-9.378,7.521c.2,4.536,3.393,10.065,5.724,13.342s8.222,5.748,11.916,6.573q7.181-8.483,14.364-16.965a3.727,3.727,0,0,1,1.95-1.477,3.55,3.55,0,0,1,2.026.484c4.873,2.2,12.575,4.71,17.831,5.052a5.945,5.945,0,0,0,3.34-.479c1.53-.855,2.262-2.79,2.817-4.587a95.923,95.923,0,0,0,3.991-21.281,67.316,67.316,0,0,0,.172-10.783c-.28-3.106-.255-6.6-1.305-9.565a14.991,14.991,0,0,0-8.8-8.638c-3.808-1.506-7.92-1.738-11.964-1.831-5.334-.123-10.893.026-15.652,2.7-3.552,1.992-6.38,5.236-9.1,8.451a18.791,18.791,0,0,0-2.89,4.127,20.969,20.969,0,0,0-1.445,6.823q-.675,6.894-1.351,13.791" transform="translate(-615.29 -4.221)" fill="#ffc4c0"/>
      <path id="Path_10830" data-name="Path 10830" d="M946.066,35.681a94.693,94.693,0,0,1,3.7,10.558c.617,2.158,1.583,4.672-.254,5.667-1.509.817-4.75.893-6.97,1.462" transform="translate(-586.974 7.733)" fill="#ffc4c0"/>
      <path id="Path_10831" data-name="Path 10831" d="M922.649,24.424a101.094,101.094,0,0,0-7.322,13.645c-1.615,3.654-3.055,7.77-2.12,11.706.643,2.712,2.294,5.33,3.7,7.63,1.1,1.8,1.617,4.316,3.469,5.4a9.544,9.544,0,0,0,2.76.842,14.949,14.949,0,0,1,4.888,2.118,5.277,5.277,0,0,0,2.752,1.254,4.376,4.376,0,0,0,1.821-.579,9.6,9.6,0,0,0,2.985-1.96,11.051,11.051,0,0,0,1.806-3.187q.834-1.949,1.67-3.9a2.8,2.8,0,0,0,.312-1.2,3.159,3.159,0,0,0-.53-1.366c-1.212-2.194-2.06-6.174-.8-8.58,1.071-2.047,3.56-3.732,5.707-3.108a3.632,3.632,0,0,1,2.444,2.039,7.279,7.279,0,0,1,.339,2.383q.057,2.341-.076,4.68c-.038.654-.435,2.115-.1,2.682.626,1.052,2.686-.2,3.416-.5a3.56,3.56,0,0,0,1.564-1.08c1.021-1.373.32-3.42.49-5.19a8.614,8.614,0,0,1,2.275-4.513c1.835-2.213,3.891-4.21,5.54-6.594a13.809,13.809,0,0,0,2.767-8.273c-.155-3.6-2.236-6.737-4.472-9.361" transform="translate(-613.386 -6.772)" fill="#0c1c19"/>
      <path id="Path_10842" data-name="Path 10842" d="M929.926,28.041c7.237,5.33,18.238,11.12,28.372,11.218,3.732.036,7.8-.176,11.133-2.344a5.068,5.068,0,0,0,2.345-3.325c.4-2.8-2.2-3.41-4.233-4.08-3.895-1.281-7.683-1.057-11.7-2.026" transform="translate(-598.218 0.426)" fill="#e05244"/>
      <g id="Group_6171" data-name="Group 6171" transform="translate(289.986 440.873)">
        <path id="Path_10843" data-name="Path 10843" d="M919.518,245.813l4.791,33.74s6.715,6.662,9.945,8.417c0,0-18.854,2.792-17.766-3.321.244-1.373.577-2.345,1.141-5.408-2.113-10.4-9.76-28.645-9.76-28.645" transform="translate(-907.868 -245.813)" fill="#ffc4c0"/>
        <path id="Path_10844" data-name="Path 10844" d="M937.012,270.567c2.879.781.429,5.294-1.791,5.824-1.477.352-15.839-2.563-21.6-2.588a3.373,3.373,0,0,1-1.37-.53,1.707,1.707,0,0,1-.628-2.466,3.991,3.991,0,0,0,.437-2.031" transform="translate(-904.775 -225.342)" fill="#e05244"/>
        <path id="Path_10845" data-name="Path 10845" d="M911.606,272.979c.359-2.37-.5-8.945,2.217-8.166,1.82,2.7,4.893,3.134,7.11.864.32-.327,1.248-3.618,2.907-1.468,1.75,2.268,3.83,3.444,7,6.021,1.447,1.177,7.288,3.189,7.486,4.814.308,2.51-.749,4.072-2.915,4.4s-16.789-3.013-21.376-3.089c-.77-.013-2.313.218-2.557-.632A11.354,11.354,0,0,1,911.606,272.979Z" transform="translate(-904.689 -230.058)" fill="#fa7070"/>
        <g id="Group_6167" data-name="Group 6167" transform="translate(8.137 33.152)">
          <path id="Path_10846" data-name="Path 10846" d="M921.9,263.79c-1.228,3.927-8.854,5.9-9.722.787-.057-.331.322-.637.556-.4,1.407,1.417,2.794,2.228,4.721,1.818,1.674-.356,2.6-1.856,4.059-2.625.231-.121.471.149.386.42Z" transform="translate(-912.17 -263.34)" fill="#e05244"/>
        </g>
        <g id="Group_6168" data-name="Group 6168" transform="translate(21.422 38.285)">
          <path id="Path_10847" data-name="Path 10847" d="M922.915,266.852a16.844,16.844,0,0,0-1.646,2.141,9.017,9.017,0,0,1-1.424,2.041.391.391,0,0,1-.649-.284c-.078-2.094,1.8-3.91,3.308-4.655.422-.208.719.4.411.757Z" transform="translate(-919.194 -266.054)" fill="#e05244"/>
        </g>
        <g id="Group_6169" data-name="Group 6169" transform="translate(19.206 36.944)">
          <path id="Path_10848" data-name="Path 10848" d="M921.879,266.2c-1.454.617-2.168,2.436-3.24,3.575-.27.288-.611-.038-.617-.384a3.954,3.954,0,0,1,1.127-2.587,6.336,6.336,0,0,1,2.4-1.424c.469-.2.8.622.325.821Z" transform="translate(-918.022 -265.345)" fill="#e05244"/>
        </g>
        <g id="Group_6170" data-name="Group 6170" transform="translate(16.97 34.912)">
          <path id="Path_10849" data-name="Path 10849" d="M921.217,265.669a7.459,7.459,0,0,0-2.012,2.039,12.265,12.265,0,0,1-1.562,2.137c-.365.35-.793-.032-.8-.5-.049-2.381,2.175-4.159,3.851-5,.759-.38,1.211.861.526,1.328Z" transform="translate(-916.84 -264.27)" fill="#e05244"/>
        </g>
      </g>
      <path id="Path_10850" data-name="Path 10850" d="M916.327,130.06s-1.211,19.144-.132,22.993,36.314,79.154,46.18,111.667c3.021,9.955,17.071,136.752,17.071,136.752s-4.292,2.538-6.745,1.6c-3.14-9.891-31.953-58.424-36.664-91.648-1.642-11.574-4.055-23.878-1.859-41.476-17.466-15.818-31.968-33.313-48.208-50.739s-30.721-34.442-37.928-58.715c-7.339-24.72,7.727-53.9,7.727-53.9" transform="translate(-673.013 70.95)" fill="#00b795"/>
      <path id="Path_10851" data-name="Path 10851" d="M936.036,311.428c4.712,33.224,33.525,81.757,36.664,91.648a6.139,6.139,0,0,0,3.9-.323c-18.809-39.912-37.205-78.912-37.843-124.9-.019-1.379-.289-2.89.416-4,.569-.891,1.578-1.332,2.058-2.289.957-1.9-.713-4.091-2.207-5.447a425.273,425.273,0,0,1-38.062-39.382q-9.051-10.645-17.5-21.954c-3.4-4.549-6.537-9.073-9.6-13.946-3.04-4.84-5.856-10.9-9.5-15.126-1.621-2.582-3.327-5.533-2.919-8.693.316-2.432,1.808-5.143.5-7.076-.916-1.347-3.078-2.277-2.44-3.823a17.986,17.986,0,0,0,7.9-2.158,37.379,37.379,0,0,1-5.461-4.653c-1.068-1.1-2.156-2.854-1.4-4.256,1.073-1.973,4.776-1.082,4.829-3.414.034-1.428-1.7-2.548-1.241-3.878.329-.959,1.475-.98,2.355-.836l15.707,2.567c5.765.942,11.565,1.886,17.383,1.665a32.177,32.177,0,0,0,13.278-3.17c2.2-1.1,3.422-1.568,2.221-4.328-.83-1.907-2.629-3.276-4.1-4.436-10.2-8.024-21.718-13.986-33.88-16.25a117.516,117.516,0,0,1-21.332-6.372s-15.066,29.184-7.727,53.9c7.206,24.273,21.686,41.289,37.928,58.715s30.742,34.92,48.208,50.739C931.981,287.55,934.394,299.852,936.036,311.428Z" transform="translate(-673.013 70.95)" fill="url(#linear-gradient-2)" style="mix-blend-mode: multiply;isolation: isolate"/>
      <path id="Path_10852" data-name="Path 10852" d="M1001.444,87.039c-1.466,13.522-3.289,27.964-11.474,38.132-4.613,5.733-10.823,9.522-16.806,13.4a350.906,350.906,0,0,0-43.731,33.557,23.137,23.137,0,0,0-5.627,6.6,13.156,13.156,0,0,0-1.22,3.815,4.916,4.916,0,0,0,.289,3.068c.253.475.637.857.866,1.349.921,1.975-1.025,4.082-2.807,5.109-6.7,3.864-14.5,4.937-22.041,4.339s-14.9-2.782-22.151-5.137c-7.627-2.474-15.975-6.569-22.047-12.327-2.328-2.207-7.068-7.082-6.737-10.982.11-1.19,3.524-2.726,4.392-3.832a26.541,26.541,0,0,0,3.246-6.444c7.367-18.183,19.526-33.171,31.4-47.868,14.2-17.564,29.764-34.55,47.081-48.34,10.925-8.7,24.428-16.906,38.335-15.767,10.827.885,19.459,8.228,25.291,18.037" transform="translate(-671.305 16.575)" fill="url(#linear-gradient-3)"/>
      <path id="Path_10853" data-name="Path 10853" d="M983.248,96.753l-3.075-6.423c-2.145-4.483-4.445-9.157-8.19-11.873s-9.395-2.639-11.939,1.555c2.9,2.854,6.108,6.66,5.281,10.971a12.309,12.309,0,0,1-2.211,4.541A117.565,117.565,0,0,1,941,119.827c-4.076,3.359-8.366,6.4-12.151,10.2-5.132,5.143-9.63,11.848-16.174,13.9-3.747,1.176-8.058.783-11.1,3.582,1.107,1,2.618,1.1,3.927,1.685s2.548,2.257,1.924,3.717a3.107,3.107,0,0,1-1.909,1.517c-8.247,3.219-17.235,1.816-25.845.378-7.188-1.2-14.5-2.446-21.045-6.106-3.047-1.7-5.928-3.913-9.07-5.289a40.573,40.573,0,0,0,3.688,4.163c6.072,6.036,14.42,10.333,22.047,12.928,7.254,2.466,14.612,4.759,22.151,5.387s15.336-.5,22.041-4.551c1.782-1.078,3.728-3.287,2.807-5.359-.229-.515-.613-.915-.866-1.415a5.383,5.383,0,0,1-.289-3.215,14.271,14.271,0,0,1,1.22-4,23.97,23.97,0,0,1,5.627-6.915,353.078,353.078,0,0,1,43.731-35.193A113.137,113.137,0,0,0,983.248,96.753Z" transform="translate(-669.86 44.216)" fill="url(#linear-gradient-4)"/>
      <path id="Path_10854" data-name="Path 10854" d="M972.564,37.345q-.46-6.67-.952-13.339a7.019,7.019,0,0,0-.8-3.312,5.618,5.618,0,0,0-1.876-1.629,41.984,41.984,0,0,0-20.468-6.308c-6.855-.255-13.655,1.222-20.385,2.69a7.024,7.024,0,0,0-2.877,1.1,7.805,7.805,0,0,0-1.912,2.618c-2.247,4.254-8.161,14.247-6.6,15.523,11.515,9.4,34.495,9.285,52.118,8.4a9.247,9.247,0,0,0,3.533-1.125C973.067,40.235,972.693,39.2,972.564,37.345Z" transform="translate(-610.242 -12.729)" fill="#fa7070"/>
      <g id="Group_6172" data-name="Group 6172" transform="translate(395.616 259.278)">
        <path id="Path_10855" data-name="Path 10855" d="M971.406,149.806c1.241,2.013,4.305,6.261,4.532,6.412.906.6,8.154-1.076,10.441-1.137,2.245-.061,6.8,2.752,7.469,3.554a12.785,12.785,0,0,1,1.49,5.72c2.051,1.772,1.914,5.359,1.806,6.927-1.929-2.5-2.692-3.652-5.1-5.154-.605-.306-3.513,1.576-5.8,2.118-1.513.361-5.421-1.447-3.688,2.673a19.762,19.762,0,0,0,2.41,3.14s-1.2,1.907-4.519.91c-1.736-.522-3.055-2.427-4.2-4.12-.976-1.451-1.341-4.275-2.5-5.419-.437-.429-8.58-7.452-10.046-8.593" transform="translate(-963.713 -149.806)" fill="#ffc4c0"/>
      </g>
      <path id="Path_10856" data-name="Path 10856" d="M918.058,49.326c11.8-7.5,22.032,8.4,27.3,20.585,14.038,32.48,17.753,69.307,28.047,103.7,22.529,18.084,51.427,72.727,51.427,72.727l-4.311,7.49c-27.831-9.072-52.638-29.359-70.919-53.864-14.033-21.57-25.1-49.356-35.637-72.141-.872-1.886-2.76-4.818-6.433-4.371" transform="translate(-618.182 18.172)" fill="#fa7070"/>
      <path id="Path_10857" data-name="Path 10857" d="M907.382,78.822a3.459,3.459,0,0,1,4.038.231,11.59,11.59,0,0,1,2.92,3.552c2.315,3.783,7.515,13.929,9.314,18.073" transform="translate(-618.315 45.7)" fill="none" stroke="#e05244" stroke-miterlimit="10" stroke-width="1"/>
      <path id="Path_10858" data-name="Path 10858" d="M1010.4,202.327l.053-.1c-9.828-11.1-22.087-17.8-33.059-26.9-10.017-8.305-19.043-18.722-27.871-29.331-1.116-1.341-2.309-3.6-1.377-5.188,1.052-1.8,3.874-.611,4.271-2.862-4.26-3.76-10.047-2.135-14.5-5.434-3.068-2.274-5.054-6.541-7.139-10.418a84.434,84.434,0,0,0-11.892-16.929c6.253,14.224,12.985,28.408,20.594,40.674C957.762,171.538,982.568,192.813,1010.4,202.327Z" transform="translate(-608.06 69.677)" fill="url(#linear-gradient-5)"/>
      <path id="Path_10859" data-name="Path 10859" d="M954.127,23.014c-5.451,2.395-11.545,2.19-17.422,1.924q.074,1,.147,2a1.31,1.31,0,0,0,.182.692,1.06,1.06,0,0,0,.692.333c5.574,1.052,11.5.726,16.62-1.88C954.275,25.062,954.2,24.037,954.127,23.014Z" transform="translate(-592.174 -3.56)" fill="#04a285"/>
      <circle id="Ellipse_10" data-name="Ellipse 10" cx="105.606" cy="105.606" r="105.606" transform="translate(4.45 344.448)" fill="none" stroke="#0d1c19" stroke-miterlimit="10" stroke-width="2"/>
      <circle id="Ellipse_11" data-name="Ellipse 11" cx="105.606" cy="105.606" r="105.606" transform="translate(347.478 345.234)" fill="none" stroke="#0d1c19" stroke-miterlimit="10" stroke-width="2"/>
      <path id="Path_11084" data-name="Path 11084" d="M820.969,253.206a5.391,5.391,0,1,1-5.391-5.389A5.391,5.391,0,0,1,820.969,253.206Z" transform="translate(-704.961 196.847)" fill="#88efdc"/>
      <circle id="Ellipse_8" data-name="Ellipse 8" cx="16.241" cy="16.241" r="16.241" transform="translate(436.843 433.813)" fill="#04a285"/>
      <path id="Path_11085" data-name="Path 11085" d="M1005.523,254.326a7.766,7.766,0,1,1-7.766-7.766A7.767,7.767,0,0,1,1005.523,254.326Z" transform="translate(-544.672 195.726)" fill="#88efdc"/>
      <path id="Path_11086" data-name="Path 11086" d="M0,0,67.54,175.311" transform="translate(193.624 274.742)" fill="none" stroke="#88efdc" stroke-width="2"/>
    </g>
    <ellipse id="Ellipse_164" data-name="Ellipse 164" cx="260.09" cy="1.7" rx="260.09" ry="1.7" transform="translate(801.76 740.445)" fill="#e5e5e5"/>
  </g>
</svg>
